<?xml version="1.0" encoding="iso-8859-1"?>
<!-- Generator: Adobe Illustrator 16.0.0, SVG Export Plug-In . SVG Version: 6.00 Build 0)  -->
<!DOCTYPE svg PUBLIC "-//W3C//DTD SVG 1.1//EN" "http://www.w3.org/Graphics/SVG/1.1/DTD/svg11.dtd">
<svg version="1.1" id="Capa_1" xmlns="http://www.w3.org/2000/svg" xmlns:xlink="http://www.w3.org/1999/xlink" x="0px" y="0px"
	 width="48.5px" height="48.499px" viewBox="0 0 48.5 48.499" style="enable-background:new 0 0 48.5 48.499;" xml:space="preserve"
	>
<g>
	<g>
		<path d="M43.817,7.806L40.74,8.63l2.598-6.742l1.935-0.52l-0.148-0.563L0,12.9l1.217,4.534l1.828-4.749l3.074-0.827l-2.597,6.744
			l-1.864,0.5l0.149,0.563L46.93,7.57l-1.24-4.632L43.817,7.806z M7.166,17.626l2.597-6.744l3.077-0.827l-2.616,6.749L7.166,17.626z
			 M13.886,15.83l2.595-6.747l3.062-0.819l-2.597,6.743L13.886,15.83z M20.602,14.026l2.599-6.744l3.06-0.822l-2.599,6.744
			L20.602,14.026z M27.315,12.226l2.599-6.742l3.062-0.819l-2.594,6.741L27.315,12.226z M34.024,10.429l2.614-6.747L39.7,2.858
			l-2.603,6.747L34.024,10.429z"/>
		<path d="M46.498,26.089l-4.255-5.84h3.183l3.074,4.216v-4.8H1.784v0.584h1.93l4.253,5.84H4.783l-3-4.117v25.722H48.5V26.089
			H46.498z M11.742,26.089l-4.253-5.84h3.167l4.271,5.84H11.742z M18.698,26.089l-4.254-5.84h3.167l4.255,5.84H18.698z
			 M25.656,26.089l-4.256-5.84h3.163l4.258,5.84H25.656z M32.608,26.089l-4.257-5.84h3.164l4.257,5.84H32.608z M39.567,26.089
			l-4.274-5.84h3.183l4.256,5.84H39.567z"/>
	</g>
</g>
<g>
</g>
<g>
</g>
<g>
</g>
<g>
</g>
<g>
</g>
<g>
</g>
<g>
</g>
<g>
</g>
<g>
</g>
<g>
</g>
<g>
</g>
<g>
</g>
<g>
</g>
<g>
</g>
<g>
</g>
</svg>
